<?xml version="1.0" encoding="UTF-8" standalone="no"?>
<!-- Created with Inkscape (http://www.inkscape.org/) -->

<svg
   version="1.2"
   width="340"
   height="200.00002"
   id="svg2"
   inkscape:version="1.3.2 (091e20ef0f, 2023-11-25, custom)"
   sodipodi:docname="bigcomm-text-dark-rounded.svg"
   xml:space="preserve"
   xmlns:inkscape="http://www.inkscape.org/namespaces/inkscape"
   xmlns:sodipodi="http://sodipodi.sourceforge.net/DTD/sodipodi-0.dtd"
   xmlns:xlink="http://www.w3.org/1999/xlink"
   xmlns="http://www.w3.org/2000/svg"
   xmlns:svg="http://www.w3.org/2000/svg"
   xmlns:rdf="http://www.w3.org/1999/02/22-rdf-syntax-ns#"
   xmlns:cc="http://creativecommons.org/ns#"
   xmlns:dc="http://purl.org/dc/elements/1.1/"><sodipodi:namedview
     pagecolor="#585858"
     bordercolor="#424242"
     borderopacity="1"
     objecttolerance="10"
     gridtolerance="10"
     guidetolerance="10"
     inkscape:pageopacity="0"
     inkscape:pageshadow="2"
     inkscape:window-width="1920"
     inkscape:window-height="1048"
     id="namedview15"
     showgrid="false"
     inkscape:showpageshadow="false"
     fit-margin-top="0"
     fit-margin-left="0"
     fit-margin-right="0"
     fit-margin-bottom="0"
     inkscape:zoom="1.7699772"
     inkscape:cx="196.33021"
     inkscape:cy="205.36988"
     inkscape:window-x="0"
     inkscape:window-y="0"
     inkscape:window-maximized="1"
     inkscape:current-layer="svg2"
     inkscape:pagecheckerboard="0"
     showguides="true"
     inkscape:guide-bbox="true"
     inkscape:deskcolor="#585858"><inkscape:grid
       type="xygrid"
       id="grid837"
       originx="141.00642"
       originy="184.06879"
       spacingy="1"
       spacingx="1"
       units="px"
       visible="false" /></sodipodi:namedview><defs
     id="defs4"><radialGradient
       id="a-6"
       cx="0"
       cy="0"
       r="1"
       fx="0"
       fy="0"
       gradientTransform="matrix(-0.52268372,146.80127,-146.80127,-0.52268372,144.6632,-31.000484)"
       gradientUnits="userSpaceOnUse"
       spreadMethod="pad"><stop
         offset="0"
         style="stop-opacity:1;stop-color:#002a43"
         id="stop7-1" /><stop
         offset="1"
         style="stop-opacity:1;stop-color:#2c2d3d"
         id="stop8-8" /></radialGradient><linearGradient
       inkscape:collect="always"
       xlink:href="#b"
       id="linearGradient4"
       gradientUnits="userSpaceOnUse"
       gradientTransform="matrix(0.07891685,2.809821e-4,2.809821e-4,-0.07891685,125.34549,94.496348)"
       x1="70.739998"
       y1="207.69"
       x2="304.39001"
       y2="456.44"
       spreadMethod="pad" /><linearGradient
       id="b"
       x1="70.739998"
       x2="304.39001"
       y1="207.69"
       y2="456.44"
       gradientTransform="matrix(0.01252805,4.4605909e-5,4.4605909e-5,-0.01252805,8.8805775,20.19845)"
       gradientUnits="userSpaceOnUse"
       spreadMethod="pad"><stop
         offset="0"
         style="stop-opacity:1;stop-color:#2d85c6"
         id="stop1" /><stop
         offset="1"
         style="stop-opacity:1;stop-color:#04bacc"
         id="stop2" /></linearGradient><linearGradient
       inkscape:collect="always"
       xlink:href="#c"
       id="linearGradient5"
       gradientUnits="userSpaceOnUse"
       gradientTransform="matrix(0.07891685,2.809821e-4,-2.809821e-4,0.07891685,124.16866,52.693299)"
       x1="146.39"
       y1="136.63"
       x2="380.04001"
       y2="385.38"
       spreadMethod="pad" /><linearGradient
       id="c"
       x1="146.39"
       x2="380.04001"
       y1="136.63"
       y2="385.38"
       gradientTransform="matrix(0.01252805,4.4605909e-5,-4.4605909e-5,0.01252805,8.6937546,13.562216)"
       gradientUnits="userSpaceOnUse"
       spreadMethod="pad"><stop
         offset="0"
         style="stop-opacity:1;stop-color:#2d85c6"
         id="stop3" /><stop
         offset="1"
         style="stop-opacity:1;stop-color:#04bacc"
         id="stop4" /></linearGradient><linearGradient
       inkscape:collect="always"
       xlink:href="#d"
       id="linearGradient6"
       gradientUnits="userSpaceOnUse"
       gradientTransform="matrix(0.07891685,2.809821e-4,-2.809821e-4,0.07891685,124.16866,52.693299)"
       x1="127.32"
       y1="154.53999"
       x2="360.97"
       y2="403.29001"
       spreadMethod="pad" /><linearGradient
       id="d"
       x1="127.32"
       x2="360.97"
       y1="154.53999"
       y2="403.29001"
       gradientTransform="matrix(0.01252805,4.4605909e-5,-4.4605909e-5,0.01252805,8.6937546,13.562216)"
       gradientUnits="userSpaceOnUse"
       spreadMethod="pad"><stop
         offset="0"
         style="stop-opacity:1;stop-color:#2d85c6"
         id="stop5" /><stop
         offset="1"
         style="stop-opacity:1;stop-color:#04bacc"
         id="stop6" /></linearGradient></defs><metadata
     id="metadata7"><rdf:RDF><cc:Work
         rdf:about=""><dc:format>image/svg+xml</dc:format><dc:type
           rdf:resource="http://purl.org/dc/dcmitype/StillImage" /></cc:Work></rdf:RDF></metadata><g
     id="g1"
     transform="matrix(0.73716513,0,0,0.73716513,-52.338721,97.46393)"><path
       d="m 128.6013,-30.292515 c 0.80074,0.0029 1.56627,-0.101166 2.29656,-0.303245 a 212.28488,212.28488 0 0 1 28.74611,0.173544 91.284277,91.284277 0 0 1 25.21187,5.748359 c 13.49481,5.608762 22.70444,15.3038675 27.66459,29.0498455 2.8176,8.2843905 4.45103,16.8047875 4.94492,25.5257635 a 188.36946,188.36946 0 0 1 -0.88211,32.845172 78.881713,78.881713 0 0 1 -6.05775,22.150154 c -5.71123,12.284435 -14.94986,20.730532 -27.68031,25.338422 a 104.22066,104.22066 0 0 1 -31.82652,5.38512 142.33586,142.33586 0 0 1 -36.37023,-2.87871 C 92.556719,107.76093 78.983333,94.233406 73.919306,72.17711 a 126.73034,126.73034 0 0 1 -2.882241,-30.109348 123.4651,123.4651 0 0 1 3.55688,-31.928139 c 5.49154,-20.550683 18.606728,-33.262513 39.336595,-38.117732 a 91.159717,91.159717 0 0 1 14.70635,-2.314281 z"
       style="fill:url(#a-6);fill-rule:evenodd;stroke:none;stroke-width:8.89713"
       id="path8-7" /><path
       d="m 171.81237,5.3787979 c -2.88265,-0.010079 -5.66233,1.0475087 -7.82226,2.9615937 A 19.538038,19.538038 0 0 1 161.25284,22.477129 11.797558,11.797558 0 1 0 171.81237,5.3787979 Z m 7.18113,24.6706961 a 15.374193,15.374193 0 0 1 -7.48052,1.939641 14.858162,14.858162 0 0 1 -7.2888,-1.929947 c -2.81248,0.274709 -5.63531,0.958615 -7.5901,2.7311 -5.23036,4.670179 -7.20318,11.505071 -6.8861,19.905115 4.81241,5.266456 12.48495,6.868573 21.65892,6.589839 9.17175,0.344063 16.87326,-1.194425 21.71415,-6.426513 0.38583,-8.406444 -1.43129,-15.317109 -6.69076,-19.962356 -1.97799,-1.7064 -4.69761,-2.525726 -7.43679,-2.846879 z"
       style="fill:#0bb1cb;fill-opacity:1;fill-rule:nonzero;stroke:none;stroke-width:8.89713"
       id="path9-5" /><path
       d="m 117.7806,5.18642 a 11.797558,11.797558 0 1 0 10.57191,16.906652 19.449067,19.449067 0 0 1 -2.8554,-10.161827 c 0.004,-1.156611 0.11503,-2.3395274 0.36826,-3.4863746 A 11.770867,11.770867 0 0 0 117.78057,5.18642 Z m 7.02989,24.670154 a 15.080589,15.080589 0 0 1 -7.43603,1.939799 c -2.58015,-0.0094 -5.06901,-0.66754 -7.2888,-1.92994 -2.83028,0.274645 -5.65311,0.958557 -7.64349,2.730903 -5.230366,4.67018 -7.158695,11.505229 -6.832717,19.905311 4.803507,5.266425 12.493847,6.868604 21.667817,6.589864 9.16284,0.344 16.85547,-1.194482 21.70526,-6.426538 0.37694,-8.406476 -1.44019,-15.31714 -6.74416,-19.962545 -1.97799,-1.706406 -4.66201,-2.5256 -7.43678,-2.846879 z"
       style="fill:#2d85c6;fill-opacity:1;fill-rule:nonzero;stroke:none;stroke-width:8.89713"
       id="path10-9" /><path
       d="m 154.5012,27.106307 a 20.8815,20.8815 0 0 1 -18.94231,0.0749 c -4.5564,0.295181 -9.31968,1.221323 -12.52399,4.092592 -7.67607,6.885758 -10.52317,16.884926 -10.07777,29.226873 7.06361,7.703401 18.3102,10.03891 31.76427,9.597468 13.4506,0.537259 24.74913,-1.718004 31.83182,-9.371037 0.56888,-12.33833 -2.10863,-22.490626 -9.8694,-29.297889 -3.18412,-2.796152 -7.66428,-3.924246 -12.18262,-4.322904 z"
       style="fill:#002a43;fill-opacity:1;fill-rule:nonzero;stroke:none;stroke-width:8.89713"
       id="path11-2" /><path
       d="m 145.02109,-4.0764084 a 15.91692,15.91692 0 1 0 -0.10438,31.8336694 15.916917,15.916917 0 0 0 0.11326,-31.8336316 z m 8.60114,33.1636474 a 19.511347,19.511347 0 0 1 -17.23409,0.08094 c -4.12908,0.225449 -8.45615,1.082041 -11.38379,3.714066 -6.97086,6.229921 -9.53893,15.32257 -9.12503,26.516674 6.3988,7.007049 16.64969,9.125487 28.84899,8.759653 12.23199,0.452851 22.45321,-1.592724 28.91064,-8.554003 0.4936,-11.190866 -1.92018,-20.443609 -8.95377,-26.581001 -2.90917,-2.554942 -6.96252,-3.610344 -11.06295,-3.936347 z"
       style="fill:#2a92c9;fill-opacity:1;fill-rule:nonzero;stroke:none;stroke-width:8.89713"
       id="path12-2" /><path
       d="m 167.08718,73.069355 a 22.776583,22.776583 0 0 1 -22.87539,22.713071 22.776583,22.776583 0 0 1 -22.71308,-22.875389 22.79438,22.79438 0 1 1 45.58847,0.162394 z"
       style="fill:#002a43;fill-opacity:1;fill-rule:nonzero;stroke:none;stroke-width:8.89713"
       id="path13-8" /><path
       d="m 164.13289,73.192291 a 19.796062,19.796062 0 1 1 -39.59196,-0.114268 19.796062,19.796062 0 0 1 39.59196,0.114268 z"
       style="fill:#16171c;fill-opacity:1;fill-rule:nonzero;stroke:#000000;stroke-width:0.775842;stroke-linecap:butt;stroke-linejoin:miter;stroke-miterlimit:10;stroke-dasharray:none;stroke-opacity:1"
       id="path14-9" /><path
       d="m 160.81902,66.854615 a 3.8613427,3.8613427 0 0 0 -2.7362,-1.15748 c -0.38274,0.03402 -0.80062,-0.03843 -1.14822,0.138205 a 5.8631909,5.8631909 0 0 0 -2.7907,1.65382 c -0.24139,0.283843 -0.51805,0.558677 -0.75922,0.833625 -0.21487,0.381796 -0.49197,0.727824 -0.67123,1.109752 a 8.7814406,8.7814406 0 0 0 -0.98302,3.715514 c 0.034,0.489449 0.0321,0.969909 0.10135,1.495093 0.13241,0.311874 0.0592,0.800958 0.41474,0.97127 0.27553,0.07213 0.51628,-0.06047 0.73017,-0.166426 0.58866,-0.416063 1.07977,-0.903659 1.56218,-1.453581 0.56226,-0.48737 1.01823,-1.108516 1.53612,-1.631603 0.31225,-0.239118 0.52699,-0.585323 0.83917,-0.797764 0.5537,-0.585259 1.18713,-1.072327 1.84711,-1.514834 a 3.3542078,3.3542078 0 0 1 1.73654,-0.447559 c 0.72931,0.07389 1.42183,0.48548 1.83786,1.083093 0.45166,0.588787 0.7963,1.248441 1.00733,1.952082 a 17.723029,17.723029 0 0 0 -0.54985,-2.991333 c -0.31018,-0.348094 -0.41518,-0.837808 -0.68964,-1.221367 -0.38059,-0.561889 -0.76105,-1.150437 -1.28449,-1.570469 z"
       style="fill:#2c2d3d;fill-opacity:1;fill-rule:nonzero;stroke:none;stroke-width:8.89713"
       id="path15-7" /><path
       d="m 128.24297,70.350874 c 0.14022,0.596598 0.13795,1.254998 0.34028,1.878513 a 4.4307573,4.4307573 0 0 0 0.48491,1.256227 c 0.14174,0.205039 0.23855,0.490204 0.487,0.660138 0.23937,0.249953 0.55048,0.313323 0.86163,0.385638 l 0.7303,-0.202016 a 6.316943,6.316943 0 0 0 1.40168,-1.356277 c 0.38368,-0.310047 0.73216,-0.726967 1.178,-1.001184 0.66876,-0.415748 1.43514,-0.760057 2.22647,-0.614866 a 6.5215767,6.5215767 0 0 1 2.98558,1.087181 c 0.41719,0.277291 0.86993,0.554709 1.21557,0.938532 a 6.3436346,6.3436346 0 0 1 1.62505,3.377814 c 0.0699,0.382803 0.16617,0.765751 0.0671,1.147963 -0.006,1.565883 -0.50022,3.05884 -1.16355,4.444434 -0.38476,0.621417 -0.73415,1.287477 -1.22544,1.837348 -0.20555,0.275087 -0.38457,0.559181 -0.66112,0.762803 a 7.8561417,7.8561417 0 0 1 -4.18114,2.351767 l -1.60182,0.09203 a 4.0659761,4.0659761 0 0 1 -1.14686,-0.24441 18.319134,18.319134 0 0 0 29.80464,-4.76063 l 0.10898,-0.622425 c 0.0372,-0.418079 0.1006,-0.800384 0.0754,-1.183049 0.10016,-0.622425 -0.0315,-1.245713 -0.029,-1.877398 -0.14022,-0.623307 -0.17348,-1.246217 -0.37588,-1.878633 -0.10513,-0.418583 -0.21033,-0.863786 -0.44932,-1.247206 -0.17707,-0.249701 -0.27395,-0.525922 -0.48699,-0.669008 -0.23931,-0.241134 -0.58608,-0.313512 -0.89726,-0.385764 a 13.407934,13.407934 0 0 0 -0.69473,0.211087 6.5215767,6.5215767 0 0 0 -1.43711,1.311666 c -0.38381,0.345637 -0.73229,0.762551 -1.17815,1.045669 -0.63315,0.407055 -1.43512,0.751156 -2.19979,0.614992 -1.07642,-0.03905 -2.07992,-0.567937 -3.01226,-1.087282 -0.41714,-0.286173 -0.86991,-0.56359 -1.17994,-0.947288 a 5.8187053,5.8187053 0 0 1 -1.62495,-3.37772 c -0.0699,-0.382803 -0.16618,-0.765757 -0.0671,-1.147968 a 10.605347,10.605347 0 0 1 1.12796,-4.444561 c 0.38476,-0.621417 0.73426,-1.31416 1.22544,-1.837354 0.21461,-0.275024 0.42009,-0.55011 0.69665,-0.75377 a 7.8561417,7.8561417 0 0 1 4.18114,-2.351767 l 1.60185,-0.101103 c 0.51591,0.03717 1.00474,0.181607 1.49347,0.352315 a 18.230164,18.230164 0 0 0 -13.36047,-5.848447 c -7.58029,-0.02709 -14.09136,4.505178 -16.89938,11.025695 -1.3e-4,0.03527 -0.0359,0.07112 -0.0359,0.106708 -0.0372,0.382426 -0.10059,0.800378 -0.0397,1.183169 -0.1001,0.622425 -0.004,1.245587 0.029,1.868498 z m 18.85603,4.168724 c 0.37738,1.460491 1.3873,2.682986 2.46026,3.692189 0.51377,0.633524 1.24173,1.089877 1.76444,1.714526 -0.80073,-0.0029 -1.63668,-0.112504 -2.4279,-0.284473 a 8.0073928,8.0073928 0 0 1 -2.8169,-0.988711 c -0.48825,-0.313134 -1.0034,-0.555213 -1.42007,-0.974848 a 7.437978,7.437978 0 0 1 -1.69252,-1.918916 5.8542937,5.8542937 0 0 1 -1.00439,-2.77949 2.7581019,2.7581019 0 0 1 0.28857,-1.084422 c 0.41197,-0.763691 1.28536,-1.169858 2.15739,-1.202337 0.4446,0.07288 0.89826,0.101102 1.27994,0.351559 0.63095,0.206803 1.01154,0.768756 1.21409,1.35668 0.0686,0.69423 0.0302,1.423667 0.19723,2.11823 z m -6.74369,-7.59549 a 3.4698702,3.4698702 0 0 1 1.81142,-1.488283 2.9004556,2.9004556 0 0 1 1.21979,-0.244851 3.0961918,3.0961918 0 0 1 2.11575,0.496882 c 0.31043,0.276914 0.69199,0.562961 0.83274,1.008347 a 1.7883177,1.7883177 0 0 1 -0.11225,1.565505 3.2919281,3.2919281 0 0 1 -1.50003,1.489386 3.6122238,3.6122238 0 0 1 -1.4962,0.41285 3.4965614,3.4965614 0 0 1 -1.69862,-0.210582 c -0.66627,-0.287055 -1.25165,-0.805197 -1.4271,-1.499805 -0.20277,-0.525669 0.004,-1.049858 0.25455,-1.529417 z"
       style="fill:#2c2d3d;fill-opacity:1;fill-rule:nonzero;stroke:none;stroke-width:8.89713"
       id="path16-3" /><path
       d="m 127.69833,78.383069 a 7.0109172,7.0109172 0 0 1 -0.72497,-1.292674 c 0.12964,1.04143 0.37512,2.09217 0.71854,3.098765 0.0706,0.142488 0.13241,0.311874 0.23855,0.454614 0.3806,0.553008 0.76106,1.150438 1.31121,1.561676 a 3.8969311,3.8969311 0 0 0 2.74511,1.157518 c 0.38274,-0.03402 0.76502,0.03843 1.14818,-0.129386 a 5.8720879,5.8720879 0 0 0 2.78184,-1.662753 c 0.2502,-0.274897 0.52686,-0.549732 0.74144,-0.833694 0.20605,-0.372976 0.48302,-0.727849 0.6623,-1.100876 a 8.8259263,8.8259263 0 0 0 1.01861,-3.715389 l -0.10135,-1.495093 c -0.13241,-0.320755 -0.0683,-0.800982 -0.44139,-0.980245 -0.24894,-0.07213 -0.48957,0.06935 -0.7302,0.175244 a 8.1853348,8.1853348 0 0 0 -1.53549,1.453657 c -0.59779,0.478299 -1.01822,1.108516 -1.57168,1.622576 -0.27666,0.248189 -0.49146,0.594394 -0.80358,0.797883 a 11.032408,11.032408 0 0 1 -1.88273,1.523667 3.3453107,3.3453107 0 0 1 -1.73654,0.447559 2.7047193,2.7047193 0 0 1 -1.83786,-1.0831 z"
       style="fill:#2c2d3d;fill-opacity:1;fill-rule:nonzero;stroke:none;stroke-width:8.89713"
       id="path17-6" /><path
       d="m 142.32466,68.559302 a 3.0606034,3.0606034 0 0 0 1.53173,-0.403843 3.113986,3.113986 0 0 0 1.46435,-1.462809 1.8239061,1.8239061 0 0 0 0.1125,-1.592189 c -0.14098,-0.418646 -0.52246,-0.695843 -0.83274,-1.008347 a 3.0428092,3.0428092 0 0 0 -2.11575,-0.496881 3.0072208,3.0072208 0 0 0 -1.21974,0.235779 3.718989,3.718989 0 0 0 -1.81155,1.523868 c -0.2063,0.453039 -0.4572,0.96817 -0.24567,1.493858 0.16643,0.694583 0.76081,1.221632 1.41819,1.49978 0.551,0.179842 1.11102,0.315338 1.69862,0.210582 z"
       style="fill:url(#linearGradient4);stroke:none;stroke-width:8.89713"
       id="path18-1" /><path
       d="m 148.65731,76.651573 c -1.07281,-1.053695 -2.07386,-2.267251 -2.45136,-3.692151 -0.17556,-0.703515 -0.13719,-1.432926 -0.20579,-2.162741 a 1.9929511,1.9929511 0 0 0 -1.16965,-1.356535 c -0.41745,-0.206047 -0.87105,-0.243402 -1.32455,-0.316095 a 2.4733946,2.4733946 0 0 0 -2.15729,1.175629 3.0072208,3.0072208 0 0 0 -0.27962,1.075553 6.05003,6.05003 0 0 0 0.99548,2.779458 8.4166595,8.4166595 0 0 0 1.72799,1.954627 c 0.38123,0.383937 0.90528,0.626015 1.39348,0.948069 0.86131,0.483527 1.80315,0.833846 2.80789,1.015383 a 20.463337,20.463337 0 0 0 2.46351,0.284598 c -0.5137,-0.660208 -1.27734,-1.081102 -1.80005,-1.705751 z"
       style="fill:url(#linearGradient5);stroke:none;stroke-width:8.89713"
       id="path19-2" /><path
       d="m 144.36423,52.96984 a 20.000688,20.000688 0 1 0 -0.14249,40.001122 20.000688,20.000688 0 1 0 0.14249,-40.001122 z m -16.01556,27.675421 c -0.55906,-0.420158 -0.93947,-1.017625 -1.32009,-1.570595 -0.0617,-0.178079 -0.16794,-0.312 -0.23855,-0.490205 a 23.577323,23.577323 0 0 1 -0.71867,-3.063181 7.8472447,7.8472447 0 0 0 0.7251,1.25709 2.6691309,2.6691309 0 0 0 1.87344,1.083225 3.2563397,3.2563397 0 0 0 1.70984,-0.447685 10.676523,10.676523 0 0 0 1.87369,-1.488057 c 0.32113,-0.239118 0.52693,-0.549732 0.83915,-0.788857 0.5268,-0.523086 0.94728,-1.179937 1.53625,-1.667187 0.49121,-0.514268 0.97349,-1.037499 1.57108,-1.453531 a 1.2633886,1.2633886 0 0 1 0.6946,-0.175559 c 0.3818,0.214866 0.30904,0.668378 0.45015,1.015881 0.0693,0.480692 0.0678,0.97004 0.0925,1.495042 a 8.3721739,8.3721739 0 0 1 -0.9829,3.679924 c -0.17052,0.381985 -0.49197,0.727824 -0.69794,1.109657 -0.20579,0.310677 -0.49127,0.549858 -0.73263,0.860403 a 5.7742198,5.7742198 0 0 1 -2.79061,1.627144 c -0.34759,0.176818 -0.76553,0.104189 -1.13947,0.173732 a 4.1816384,4.1816384 0 0 1 -2.74494,-1.157241 z m 32.52972,-0.480315 c -7.6e-4,0.213606 -0.0726,0.41789 -0.10897,0.631307 a 18.354723,18.354723 0 0 1 -24.42694,8.667843 18.417003,18.417003 0 0 1 -5.33338,-3.880359 c 0.34659,0.107968 0.72893,0.180598 1.11137,0.217385 l 1.59295,-0.101165 a 7.6337146,7.6337146 0 0 0 4.18114,-2.351761 2.6602338,2.6602338 0 0 0 0.66106,-0.753902 c 0.52681,-0.523087 0.84054,-1.180321 1.22537,-1.810671 0.66331,-1.385581 1.19368,-2.914016 1.16355,-4.444435 0.10822,-0.382173 0.003,-0.791829 -0.0671,-1.17467 a 6.2546634,6.2546634 0 0 0 -1.61604,-3.377632 c -0.34564,-0.383811 -0.7629,-0.634406 -1.17994,-0.947288 a 7.4913606,7.4913606 0 0 0 -3.02115,-1.08725 c -0.80023,-0.14526 -1.56664,0.208063 -2.19088,0.614992 -0.49033,0.28296 -0.80324,0.700006 -1.22264,1.045518 -0.41985,0.478929 -0.83978,0.966809 -1.39262,1.311817 l -0.73032,0.210835 c -0.31112,-0.07238 -0.6223,-0.144504 -0.87064,-0.358992 -0.23963,-0.170016 -0.34539,-0.446111 -0.47799,-0.695692 -0.24768,-0.383496 -0.35294,-0.828705 -0.48491,-1.247332 -0.21134,-0.59685 -0.20907,-1.25525 -0.34029,-1.878507 0.002,-0.631685 -0.13795,-1.254999 -0.029,-1.841814 a 4.6798762,4.6798762 0 0 1 0.0754,-1.218633 l 2.5e-4,-0.07112 a 18.345826,18.345826 0 0 1 16.89067,-11.061279 c 5.07132,0.01827 9.93047,2.152882 13.36038,5.884113 a 4.5731109,4.5731109 0 0 0 -1.49347,-0.352315 l -1.60172,0.06558 a 8.1052611,8.1052611 0 0 0 -4.17225,2.351786 2.6068512,2.6068512 0 0 0 -0.67,0.762778 c -0.51798,0.549795 -0.83172,1.207055 -1.21656,1.837379 a 9.9558583,9.9558583 0 0 0 -1.16354,4.444435 c -0.10822,0.382173 -0.003,0.800737 0.0671,1.183572 0.16467,1.246198 0.7565,2.431609 1.6162,3.368882 0.34564,0.383811 0.79849,0.634532 1.17994,0.947313 a 7.3668013,7.3668013 0 0 0 3.02116,1.087307 c 0.80023,0.14526 1.56674,-0.23452 2.2266,-0.650469 0.45474,-0.274205 0.76762,-0.691257 1.18688,-1.001159 0.4199,-0.487874 0.83089,-0.975736 1.39267,-1.320718 0.24057,-0.105953 0.48995,-0.167245 0.73042,-0.237607 0.31112,0.07238 0.62236,0.135685 0.87054,0.385701 0.23963,0.169953 0.34539,0.454992 0.47811,0.660082 0.24769,0.383496 0.344,0.837556 0.48473,1.291817 0.17581,0.587843 0.20025,1.246325 0.34041,1.842929 -0.002,0.622804 0.13795,1.246092 0.029,1.868498 0.034,0.38274 -0.0384,0.800605 -0.0754,1.183043 z m -1.27345,-12.166948 a 3.3631049,3.3631049 0 0 0 -1.70997,0.483276 8.6746753,8.6746753 0 0 0 -1.88259,1.488025 c -0.31225,0.239118 -0.51799,0.549795 -0.83027,0.797782 -0.52674,0.514142 -0.94714,1.135459 -1.5361,1.622709 a 6.9397405,6.9397405 0 0 1 -1.57107,1.453524 c -0.20504,0.141733 -0.45462,0.247434 -0.69462,0.17556 -0.38192,-0.179339 -0.30916,-0.632794 -0.45027,-0.980303 -0.0693,-0.480693 -0.0676,-1.005619 -0.10135,-1.495093 a 8.3810709,8.3810709 0 0 1 0.9918,-3.679893 c 0.17052,-0.417574 0.48302,-0.727842 0.69794,-1.10965 0.20579,-0.310677 0.49134,-0.549858 0.73264,-0.860403 a 5.9254706,5.9254706 0 0 1 2.78183,-1.662753 c 0.38306,-0.132157 0.7654,-0.06835 1.14819,-0.129386 1.04096,0.0037 2.01818,0.416441 2.74514,1.148618 0.55011,0.420157 0.93056,1.0176 1.31118,1.570576 0.24769,0.383433 0.34388,0.87314 0.66281,1.256863 0.27237,0.970765 0.43792,1.950028 0.57669,2.955905 a 7.1265795,7.1265795 0 0 0 -0.99856,-1.916441 2.7492048,2.7492048 0 0 0 -1.87331,-1.118809 z"
       style="fill:url(#linearGradient6);stroke:none;stroke-width:8.89713"
       id="path20-9" /></g><rect
     style="fill:none;stroke-width:0.752768"
     id="rect289"
     width="340"
     height="200.00002"
     x="2.1664619e-07"
     y="2.2922136e-07"
     rx="1.1333333" /><text
     xml:space="preserve"
     style="font-weight:bold;font-size:30.6324px;font-family:'Ubuntu Mono';-inkscape-font-specification:'Ubuntu Mono Bold';fill:#ffffff;fill-opacity:1;stroke:none;stroke-width:6.87417;stroke-linecap:round;stroke-linejoin:round"
     x="110.65779"
     y="138.86038"
     id="text638"><tspan
       sodipodi:role="line"
       id="tspan636"
       style="font-style:normal;font-variant:normal;font-weight:600;font-stretch:normal;font-family:'Lexend Deca';-inkscape-font-specification:'Lexend Deca Semi-Bold';fill:#ffffff;fill-opacity:1;stroke:none;stroke-width:6.87417"
       x="110.65779"
       y="138.86038">BigCommunity</tspan></text></svg>
