<?xml version="1.0" encoding="UTF-8" standalone="no"?>
<!-- Created with Inkscape (http://www.inkscape.org/) -->

<svg
   version="1.2"
   width="340"
   height="200.00002"
   id="svg2"
   inkscape:version="1.3.2 (091e20ef0f, 2023-11-25, custom)"
   sodipodi:docname="bigcomm-text-dark-rounded.svg"
   xml:space="preserve"
   xmlns:inkscape="http://www.inkscape.org/namespaces/inkscape"
   xmlns:sodipodi="http://sodipodi.sourceforge.net/DTD/sodipodi-0.dtd"
   xmlns="http://www.w3.org/2000/svg"
   xmlns:svg="http://www.w3.org/2000/svg"
   xmlns:rdf="http://www.w3.org/1999/02/22-rdf-syntax-ns#"
   xmlns:cc="http://creativecommons.org/ns#"
   xmlns:dc="http://purl.org/dc/elements/1.1/"><sodipodi:namedview
     pagecolor="#585858"
     bordercolor="#424242"
     borderopacity="1"
     objecttolerance="10"
     gridtolerance="10"
     guidetolerance="10"
     inkscape:pageopacity="0"
     inkscape:pageshadow="2"
     inkscape:window-width="1920"
     inkscape:window-height="1048"
     id="namedview15"
     showgrid="false"
     inkscape:showpageshadow="false"
     fit-margin-top="0"
     fit-margin-left="0"
     fit-margin-right="0"
     fit-margin-bottom="0"
     inkscape:zoom="1.7699772"
     inkscape:cx="196.04772"
     inkscape:cy="205.93486"
     inkscape:window-x="0"
     inkscape:window-y="0"
     inkscape:window-maximized="1"
     inkscape:current-layer="svg2"
     inkscape:pagecheckerboard="0"
     showguides="true"
     inkscape:guide-bbox="true"
     inkscape:deskcolor="#585858"><inkscape:grid
       type="xygrid"
       id="grid837"
       originx="141.00642"
       originy="184.06879"
       spacingy="1"
       spacingx="1"
       units="px"
       visible="false" /></sodipodi:namedview><defs
     id="defs4"><radialGradient
       id="a-6"
       cx="0"
       cy="0"
       r="1"
       fx="0"
       fy="0"
       gradientTransform="matrix(-0.52268372,146.80127,-146.80127,-0.52268372,144.6632,-31.000484)"
       gradientUnits="userSpaceOnUse"
       spreadMethod="pad"><stop
         offset="0"
         style="stop-opacity:1;stop-color:#002a43"
         id="stop7-1" /><stop
         offset="1"
         style="stop-opacity:1;stop-color:#2c2d3d"
         id="stop8-8" /></radialGradient><linearGradient
       id="b"
       x1="70.739998"
       x2="304.39001"
       y1="207.69"
       y2="456.44"
       gradientTransform="matrix(0.01252805,4.4605909e-5,4.4605909e-5,-0.01252805,8.8805775,20.19845)"
       gradientUnits="userSpaceOnUse"
       spreadMethod="pad"><stop
         offset="0"
         style="stop-opacity:1;stop-color:#2d85c6"
         id="stop1" /><stop
         offset="1"
         style="stop-opacity:1;stop-color:#04bacc"
         id="stop2" /></linearGradient><linearGradient
       id="c"
       x1="146.39"
       x2="380.04001"
       y1="136.63"
       y2="385.38"
       gradientTransform="matrix(0.01252805,4.4605909e-5,-4.4605909e-5,0.01252805,8.6937546,13.562216)"
       gradientUnits="userSpaceOnUse"
       spreadMethod="pad"><stop
         offset="0"
         style="stop-opacity:1;stop-color:#2d85c6"
         id="stop3" /><stop
         offset="1"
         style="stop-opacity:1;stop-color:#04bacc"
         id="stop4" /></linearGradient><linearGradient
       id="d"
       x1="127.32"
       x2="360.97"
       y1="154.53999"
       y2="403.29001"
       gradientTransform="matrix(0.01252805,4.4605909e-5,-4.4605909e-5,0.01252805,8.6937546,13.562216)"
       gradientUnits="userSpaceOnUse"
       spreadMethod="pad"><stop
         offset="0"
         style="stop-opacity:1;stop-color:#2d85c6"
         id="stop5" /><stop
         offset="1"
         style="stop-opacity:1;stop-color:#04bacc"
         id="stop6" /></linearGradient><radialGradient
       id="a-6-7"
       cx="0"
       cy="0"
       r="1"
       fx="0"
       fy="0"
       gradientTransform="matrix(-0.52268372,146.80127,-146.80127,-0.52268372,144.6632,-31.000484)"
       gradientUnits="userSpaceOnUse"
       spreadMethod="pad"><stop
         offset="0"
         style="stop-opacity:1;stop-color:#002a43"
         id="stop7-1-5" /><stop
         offset="1"
         style="stop-opacity:1;stop-color:#2c2d3d"
         id="stop8-8-9" /></radialGradient><radialGradient
       id="paint0_radial_313_57"
       cx="0"
       cy="0"
       r="1"
       gradientUnits="userSpaceOnUse"
       gradientTransform="matrix(0,11,-11,0,301,318)"><stop
         stop-color="#1D4775"
         id="stop8" /><stop
         offset="1"
         stop-color="#002A43"
         id="stop9" /></radialGradient><linearGradient
       id="paint1_linear_313_57"
       x1="4"
       y1="16"
       x2="20"
       y2="16"
       gradientUnits="userSpaceOnUse"
       gradientTransform="translate(289,317)"><stop
         stop-color="#2D85C5"
         id="stop10" /><stop
         offset="1"
         stop-color="#0BB1CB"
         id="stop11" /></linearGradient><radialGradient
       id="a-6-1"
       cx="0"
       cy="0"
       r="1"
       fx="0"
       fy="0"
       gradientTransform="matrix(-0.52268372,146.80127,-146.80127,-0.52268372,144.6632,-31.000484)"
       gradientUnits="userSpaceOnUse"
       spreadMethod="pad"><stop
         offset="0"
         style="stop-opacity:1;stop-color:#002a43"
         id="stop7-1-0" /><stop
         offset="1"
         style="stop-opacity:1;stop-color:#2c2d3d"
         id="stop8-8-6" /></radialGradient></defs><metadata
     id="metadata7"><rdf:RDF><cc:Work
         rdf:about=""><dc:format>image/svg+xml</dc:format><dc:type
           rdf:resource="http://purl.org/dc/dcmitype/StillImage" /></cc:Work></rdf:RDF></metadata><g
     id="g3"
     transform="matrix(4.8964759,0,0,4.8964759,-1419.6519,-1482.2546)"><path
       fill-rule="evenodd"
       clip-rule="evenodd"
       d="m 298.59604,318.11359 c 0.11984,0.001 0.23439,-0.014 0.34365,-0.0458 1.43581,-0.094 2.87141,-0.0902 4.30701,0.0115 1.3017,0.10142 2.5618,0.38384 3.7802,0.84726 2.0256,0.83394 3.4117,2.28039 4.1581,4.33935 0.4269,1.23964 0.6789,2.51436 0.7561,3.82415 0.1067,1.6447 0.0685,3.2858 -0.1146,4.9233 -0.137,1.1509 -0.4349,2.2577 -0.8935,3.3203 -0.8506,1.8425 -2.229,3.1134 -4.1352,3.8127 -1.5447,0.5219 -3.1331,0.7967 -4.7653,0.8243 -1.8359,0.0955 -3.65337,-0.0419 -5.45253,-0.4121 -3.31158,-0.7377 -5.35438,-2.7567 -6.12839,-6.0568 -0.32847,-1.4856 -0.47738,-2.9893 -0.44675,-4.5111 -0.0367,-1.6182 0.13517,-3.21351 0.51548,-4.78589 0.8114,-3.08563 2.77019,-4.9977 5.87638,-5.73619 0.72379,-0.17695 1.45691,-0.29526 2.19935,-0.35493 z"
       fill="url(#paint0_radial_313_57)"
       id="path1"
       style="fill:url(#paint0_radial_313_57)" /><path
       fill-rule="evenodd"
       clip-rule="evenodd"
       d="m 298.54799,339.8698 c -0.65843,-0.0731 -1.31443,-0.1768 -1.96802,-0.3113 -1.42986,-0.3186 -2.62319,-0.8759 -3.57997,-1.6722 v -0.6159 c 0,-0.491 0.17695,-0.9109 0.53086,-1.2599 0.3539,-0.3489 0.77138,-0.5234 1.25242,-0.5234 h 2.26213 c 0.23348,0 0.42122,0.033 0.56322,0.0991 0.14189,0.066 0.25687,0.1651 0.34493,0.2972 0.35225,0.5063 0.79257,0.8971 1.32094,1.1723 0.5284,0.2752 1.0279,0.4129 1.7179,0.4128 0.6895,-1e-4 1.1772,-0.1376 1.7166,-0.4128 0.5394,-0.2752 0.9907,-0.666 1.354,-1.1723 0.077,-0.1321 0.1876,-0.2312 0.3317,-0.2972 0.1442,-0.0661 0.3253,-0.0991 0.5434,-0.0991 h 2.2786 c 0.491,0 0.9109,0.1745 1.2599,0.5234 0.3489,0.349 0.5234,0.7689 0.5234,1.2599 v 0.627 c -0.6327,0.5261 -1.3668,0.9424 -2.2022,1.2489 -1.0933,0.3694 -2.2086,0.615 -3.3457,0.7368 -10e-5,-0.003 -10e-5,-0.006 -10e-5,-0.009 v -0.7573 c 0,-0.1456 -0.1509,-0.2428 -0.2859,-0.1882 -0.2959,0.1197 -0.5996,0.219 -0.9112,0.2979 -0.4128,0.1046 -0.7647,0.156 -1.2608,0.1569 -0.4901,9e-4 -0.8315,-0.0495 -1.2462,-0.1486 -0.313,-0.0748 -0.6176,-0.1715 -0.91378,-0.2902 -0.1352,-0.0541 -0.28613,0.0431 -0.28613,0.1887 z m 2.44371,-8.4116 c -0.6128,0 -1.1375,-0.2188 -1.574,-0.6563 -0.43672,-0.4376 -0.65506,-0.9634 -0.65506,-1.5774 0,-0.6134 0.21878,-1.1375 0.65636,-1.5723 0.4376,-0.4348 0.9633,-0.6522 1.5774,-0.6522 0.6133,0 1.1374,0.2185 1.5722,0.6555 0.4348,0.437 0.6522,0.9616 0.6522,1.5736 0,0.6128 -0.2185,1.1375 -0.6555,1.5741 -0.437,0.4367 -0.9615,0.655 -1.5736,0.655 z m -5.28375,2.4438 c -0.61281,0 -1.13751,-0.2188 -1.57408,-0.6564 -0.43668,-0.4376 -0.65503,-0.9633 -0.65503,-1.5774 0,-0.6133 0.21879,-1.1374 0.65635,-1.5722 0.43757,-0.4348 0.96336,-0.6522 1.57738,-0.6522 0.61336,0 1.13745,0.2185 1.57226,0.6555 0.43481,0.437 0.65222,0.9615 0.65222,1.5736 0,0.6128 -0.21851,1.1375 -0.65552,1.574 -0.43702,0.4367 -0.96154,0.6551 -1.57358,0.6551 z m 10.56755,0 c -0.6128,0 -1.1375,-0.2188 -1.574,-0.6564 -0.4367,-0.4376 -0.6551,-0.9633 -0.6551,-1.5774 0,-0.6133 0.2188,-1.1374 0.6564,-1.5722 0.4376,-0.4348 0.9633,-0.6522 1.5774,-0.6522 0.6133,0 1.1374,0.2185 1.5722,0.6555 0.4348,0.437 0.6522,0.9615 0.6522,1.5736 0,0.6128 -0.2185,1.1375 -0.6555,1.574 -0.437,0.4367 -0.9615,0.6551 -1.5736,0.6551 z m -6.258,2.196 c 0.3083,0.1652 0.6323,0.2477 0.9723,0.2477 0.3518,0 0.685,-0.0825 0.9996,-0.2477 0.3146,-0.1651 0.571,-0.3852 0.7691,-0.6604 0.2642,-0.3963 0.5807,-0.6743 0.9494,-0.8339 0.2302,-0.0996 0.4786,-0.1681 0.7452,-0.2056 0.1792,-0.0251 0.2575,-0.2445 0.107,-0.3448 -0.3607,-0.2405 -0.8186,-0.4506 -1.3736,-0.6302 -0.7824,-0.2532 -1.514,-0.3798 -2.1948,-0.3798 -0.6697,0 -1.393,0.1266 -2.16995,0.3798 -0.54928,0.179 -1.00619,0.3883 -1.37071,0.6278 -0.15234,0.1001 -0.0744,0.3231 0.10586,0.3499 0.26282,0.039 0.50787,0.1094 0.73515,0.2112 0.36877,0.1651 0.69075,0.4403 0.96595,0.8256 0.1981,0.2752 0.4513,0.4953 0.7595,0.6604 z"
       fill="url(#paint1_linear_313_57)"
       id="path2"
       style="fill:url(#paint1_linear_313_57)" /><path
       d="m 300.0175,336.098 c 0.3082,0.1652 0.6323,0.2477 0.9722,0.2477 0.3519,0 0.6851,-0.0825 0.9997,-0.2477 0.3146,-0.1651 0.5709,-0.3852 0.7691,-0.6604 0.2642,-0.3963 0.5807,-0.6743 0.9494,-0.8339 0.2302,-0.0996 0.4786,-0.1681 0.7452,-0.2056 0.1792,-0.0251 0.2575,-0.2445 0.107,-0.3448 -0.3608,-0.2405 -0.8186,-0.4506 -1.3736,-0.6302 -0.7825,-0.2532 -1.514,-0.3798 -2.1948,-0.3798 -0.6697,0 -1.393,0.1266 -2.16997,0.3798 -0.54929,0.179 -1.00619,0.3883 -1.37072,0.6278 -0.15234,0.1001 -0.0744,0.3231 0.10587,0.3499 0.26282,0.039 0.50787,0.1094 0.73515,0.2112 0.36877,0.1651 0.69075,0.4403 0.96597,0.8256 0.1981,0.2752 0.4513,0.4953 0.7595,0.6604 z"
       fill="#2a91c9"
       id="path3" /><path
       d="m 299.4176,330.8019 c 0.4366,0.4375 0.9613,0.6563 1.5741,0.6563 0.6121,0 1.1366,-0.2183 1.5736,-0.655 0.437,-0.4366 0.6555,-0.9613 0.6555,-1.5741 0,-0.612 -0.2174,-1.1366 -0.6522,-1.5736 -0.4348,-0.437 -0.9589,-0.6555 -1.5723,-0.6555 -0.614,0 -1.1398,0.2174 -1.5773,0.6522 -0.4376,0.4348 -0.65638,0.9589 -0.65638,1.5723 0,0.614 0.21834,1.1398 0.65498,1.5774 z"
       fill="#2a91c9"
       id="path4" /><path
       d="m 303.4826,321.094 c 0.4146,-0.318 0.9181,-0.49898 1.4403,-0.51782 0.1676,0.0282 0.3392,0.0329 0.5083,0.0528 0.1908,0.0473 0.3716,0.12851 0.5337,0.23977 0.2514,0.21009 0.456,0.4706 0.6005,0.76468 0.2203,0.42094 0.3384,0.88783 0.3447,1.36288 -0.01,0.16036 -0.0314,0.31977 -0.0647,0.47693 -0.0728,-0.14633 -0.1278,-0.30084 -0.1639,-0.46024 -0.0785,-0.20185 -0.1882,-0.39014 -0.325,-0.55802 -0.1984,-0.26071 -0.4871,-0.43779 -0.8094,-0.49645 -0.1228,-0.0244 -0.2486,-0.0299 -0.3731,-0.0162 -0.3505,0.0323 -0.6842,0.16532 -0.9609,0.38304 -0.0923,0.0775 -0.1972,0.1478 -0.2747,0.22956 -0.0939,0.10119 -0.1824,0.2071 -0.2655,0.31732 -0.2443,0.32631 -0.4156,0.70137 -0.5022,1.09971 -0.01,0.16207 -0.0357,0.31461 -0.0477,0.47807 0.0272,0.1149 -0.0208,0.25679 0.0847,0.3366 0.0795,0.0189 0.1628,0.0118 0.2379,-0.0203 0.2019,-0.10417 0.3918,-0.23 0.5665,-0.37526 0.2104,-0.12319 0.373,-0.30095 0.5769,-0.43729 0.1119,-0.0605 0.1875,-0.14083 0.3025,-0.2094 0.2078,-0.14848 0.4312,-0.27389 0.6662,-0.37398 0.1799,-0.073 0.3772,-0.0919 0.5677,-0.0544 0.1124,0.0345 0.2165,0.0914 0.3063,0.1672 0.0897,0.0758 0.1632,0.16905 0.2159,0.27403 0.1477,0.30928 0.2348,0.644 0.2565,0.98604 0.0103,0.17411 -0.033,0.3392 -0.0405,0.52754 -0.1152,0.57949 -0.315,1.13887 -0.5931,1.66015 -0.0988,0.18257 -0.2199,0.35217 -0.3607,0.50467 -0.0465,0.0405 -0.0801,0.0969 -0.138,0.1026 0.0317,-0.1107 0.0701,-0.2193 0.1151,-0.3253 0.0409,-0.1202 0.0671,-0.24485 0.078,-0.37131 0.0476,-0.1905 0.0802,-0.38442 0.0976,-0.57999 -0.0148,-0.199 0.0132,-0.40631 -0.0186,-0.60645 -0.009,-0.14457 -0.0379,-0.28714 -0.0874,-0.42323 -0.0203,-0.0878 -0.0601,-0.16991 -0.1165,-0.24023 -0.067,-0.0786 -0.1558,-0.13551 -0.2552,-0.1636 -0.0784,0.003 -0.1564,0.0133 -0.2328,0.0315 -0.1864,0.0858 -0.3589,0.19918 -0.5117,0.33623 -0.1345,0.0998 -0.2784,0.18646 -0.4296,0.25866 -0.2241,0.11604 -0.4832,0.14491 -0.7273,0.081 -0.3309,-0.0959 -0.6359,-0.26506 -0.8925,-0.49491 -0.1219,-0.10706 -0.2305,-0.22835 -0.3236,-0.36128 -0.2273,-0.3352 -0.3414,-0.73433 -0.3255,-1.139 -0.0153,-0.125 -0.002,-0.25182 0.0383,-0.37106 0.09,-0.48301 0.2882,-0.93938 0.5797,-1.33489 0.1437,-0.1833 0.3038,-0.35311 0.4784,-0.5073 0.0565,-0.10017 0.1416,-0.18127 0.2444,-0.23296 z"
       fill="#ffffff"
       id="path5" /><path
       d="m 298.48208,327.0028 c -0.41378,0.3189 -0.91686,0.5006 -1.43896,0.5198 -0.16764,-0.0283 -0.33922,-0.033 -0.50799,-0.0545 -0.19116,-0.0457 -0.3722,-0.1265 -0.53398,-0.2381 -0.25034,-0.2126 -0.45281,-0.47574 -0.59408,-0.7722 -0.21863,-0.42099 -0.33672,-0.88691 -0.34501,-1.3612 0.01,-0.16036 0.0314,-0.31977 0.0647,-0.47693 0.0738,0.14591 0.12885,0.30054 0.1639,0.46024 0.078,0.20164 0.18712,0.38983 0.32333,0.55773 0.19551,0.26218 0.48187,0.44192 0.80298,0.50399 0.12288,0.0247 0.24892,0.0297 0.37335,0.0146 0.35049,-0.0309 0.68434,-0.16344 0.96057,-0.38135 0.0926,-0.0792 0.19584,-0.13943 0.27479,-0.22957 0.0941,-0.10091 0.18274,-0.20684 0.26543,-0.31732 0.24936,-0.32758 0.42316,-0.70627 0.50894,-1.10892 0.0131,-0.17017 0.0377,-0.316 0.0494,-0.47779 -0.0289,-0.11518 0.0191,-0.25707 -0.0864,-0.33688 -0.0795,-0.0181 -0.1626,-0.011 -0.23786,0.0203 -0.20236,0.10418 -0.39247,0.23061 -0.56679,0.37694 -0.20839,0.1218 -0.37271,0.29927 -0.57666,0.43561 -0.11188,0.0605 -0.18887,0.14921 -0.30243,0.2094 -0.20813,0.14804 -0.43149,0.27341 -0.66627,0.37398 -0.17993,0.0729 -0.37718,0.0918 -0.56769,0.0545 -0.11205,-0.0329 -0.21625,-0.0883 -0.30626,-0.16266 -0.09,-0.0744 -0.16396,-0.16633 -0.21736,-0.27019 -0.14769,-0.30928 -0.23473,-0.644 -0.25643,-0.98604 -0.0103,-0.17411 0.0329,-0.3392 0.0405,-0.52754 0.11604,-0.58096 0.31612,-1.14191 0.59392,-1.66518 0.0987,-0.1826 0.21994,-0.35214 0.36074,-0.50469 0.0465,-0.0405 0.0767,-0.0974 0.13626,-0.10291 -0.0319,0.11066 -0.0703,0.21931 -0.11509,0.32539 -0.0424,0.12032 -0.0692,0.24555 -0.0799,0.37266 -0.0476,0.1905 -0.0802,0.38442 -0.0976,0.58 0.0131,0.19871 -0.0132,0.4063 0.015,0.60755 0.009,0.14373 0.038,0.2855 0.086,0.42128 0.0215,0.0878 0.0618,0.16981 0.11813,0.24051 0.0671,0.078 0.15628,0.13386 0.25574,0.16025 0.0785,-0.002 0.15663,-0.0125 0.23285,-0.0315 0.18643,-0.0858 0.35891,-0.19917 0.51167,-0.33622 0.13422,-0.0989 0.27742,-0.18505 0.42771,-0.25727 0.22443,-0.117 0.48436,-0.14638 0.72926,-0.0824 0.33112,0.0953 0.63628,0.26448 0.89246,0.49491 0.1219,0.10646 0.2307,0.2272 0.3239,0.3596 0.2295,0.3363 0.3462,0.73683 0.3333,1.14377 0.0144,0.125 10e-4,0.25163 -0.0383,0.37106 -0.0939,0.48519 -0.297,0.94263 -0.594,1.33765 -0.1385,0.18496 -0.29378,0.35675 -0.46385,0.5132 -0.063,0.096 -0.14976,0.17403 -0.25187,0.22654 z"
       fill="#ffffff"
       id="path6" /><path
       d="m 300.5605,321.04361 c 0.1791,-0.0335 0.3633,-0.0286 0.5403,0.0146 0.177,0.0432 0.3428,0.12351 0.4864,0.23571 0.1004,0.10285 0.174,0.22891 0.214,0.36698 0.0202,0.0863 0.0202,0.17609 0,0.26238 -0.0202,0.0863 -0.0601,0.16676 -0.1164,0.23515 -0.1206,0.15669 -0.2797,0.27947 -0.4618,0.35637 -0.1821,0.0769 -0.3811,0.1053 -0.5774,0.0824 -0.1833,-0.008 -0.3615,-0.0626 -0.5182,-0.15786 -0.0979,-0.0576 -0.1821,-0.13595 -0.2464,-0.22958 -0.0644,-0.0936 -0.1074,-0.20023 -0.1261,-0.3123 -0.008,-0.0836 10e-4,-0.1681 0.0285,-0.24767 0.0271,-0.0796 0.0709,-0.15246 0.1284,-0.21374 0.1609,-0.20578 0.3917,-0.34542 0.6487,-0.39246 z"
       fill="#ffffff"
       id="path7" /><path
       d="m 300.2432,323.07248 c 0.0907,-0.10422 0.207,-0.18308 0.3374,-0.22883 0.1304,-0.0457 0.2704,-0.0568 0.4064,-0.0321 0.139,0.0321 0.2703,0.0917 0.386,0.17526 0.0855,0.0507 0.1577,0.12108 0.2107,0.20522 0.053,0.0841 0.0852,0.17967 0.094,0.27871 -0.0382,0.22523 -0.053,0.45381 -0.0441,0.68208 0.0709,0.47254 0.2706,0.91644 0.5771,1.28303 0.134,0.22769 0.3409,0.40211 0.4749,0.62979 -0.2574,-0.0511 -0.5106,-0.12133 -0.7576,-0.21021 -0.3036,-0.10266 -0.5862,-0.25941 -0.834,-0.46268 -0.1447,-0.10601 -0.2744,-0.23105 -0.3857,-0.37172 -0.1848,-0.20504 -0.3335,-0.43988 -0.4399,-0.69457 -0.1307,-0.29328 -0.1874,-0.61416 -0.1651,-0.93447 0.0279,-0.11374 0.0753,-0.22181 0.1399,-0.31948 z"
       fill="#ffffff"
       id="path8" /></g><rect
     style="fill:none;stroke-width:0.752768"
     id="rect289"
     width="340"
     height="200.00002"
     x="2.1664619e-07"
     y="2.2922136e-07"
     rx="1.1333333" /><text
     xml:space="preserve"
     style="font-weight:bold;font-size:30.6324px;font-family:'Ubuntu Mono';-inkscape-font-specification:'Ubuntu Mono Bold';fill:#ffffff;fill-opacity:1;stroke:none;stroke-width:6.87417;stroke-linecap:round;stroke-linejoin:round"
     x="110.65779"
     y="138.86038"
     id="text638"><tspan
       sodipodi:role="line"
       id="tspan636"
       style="font-style:normal;font-variant:normal;font-weight:600;font-stretch:normal;font-family:'Lexend Deca';-inkscape-font-specification:'Lexend Deca Semi-Bold';fill:#ffffff;fill-opacity:1;stroke:none;stroke-width:6.87417"
       x="110.65779"
       y="138.86038">BigCommunity</tspan></text></svg>
