<?xml version="1.0" encoding="UTF-8" standalone="no"?>
<!-- Created with Inkscape (http://www.inkscape.org/) -->

<svg
   version="1.2"
   width="340"
   height="200.00002"
   id="svg2"
   inkscape:version="1.3.2 (091e20ef0f, 2023-11-25, custom)"
   sodipodi:docname="bigcomm-text-rounded.svg"
   xml:space="preserve"
   xmlns:inkscape="http://www.inkscape.org/namespaces/inkscape"
   xmlns:sodipodi="http://sodipodi.sourceforge.net/DTD/sodipodi-0.dtd"
   xmlns="http://www.w3.org/2000/svg"
   xmlns:svg="http://www.w3.org/2000/svg"
   xmlns:rdf="http://www.w3.org/1999/02/22-rdf-syntax-ns#"
   xmlns:cc="http://creativecommons.org/ns#"
   xmlns:dc="http://purl.org/dc/elements/1.1/"><sodipodi:namedview
     pagecolor="#585858"
     bordercolor="#424242"
     borderopacity="1"
     objecttolerance="10"
     gridtolerance="10"
     guidetolerance="10"
     inkscape:pageopacity="0"
     inkscape:pageshadow="2"
     inkscape:window-width="1920"
     inkscape:window-height="1048"
     id="namedview15"
     showgrid="false"
     inkscape:showpageshadow="false"
     fit-margin-top="0"
     fit-margin-left="0"
     fit-margin-right="0"
     fit-margin-bottom="0"
     inkscape:zoom="1.7699772"
     inkscape:cx="196.04772"
     inkscape:cy="205.36988"
     inkscape:window-x="0"
     inkscape:window-y="0"
     inkscape:window-maximized="1"
     inkscape:current-layer="svg2"
     inkscape:pagecheckerboard="0"
     showguides="true"
     inkscape:guide-bbox="true"
     inkscape:deskcolor="#585858"><inkscape:grid
       type="xygrid"
       id="grid837"
       originx="141.00642"
       originy="184.06879"
       spacingy="1"
       spacingx="1"
       units="px"
       visible="false" /></sodipodi:namedview><defs
     id="defs4"><radialGradient
       id="a-6"
       cx="0"
       cy="0"
       r="1"
       fx="0"
       fy="0"
       gradientTransform="matrix(-0.52268372,146.80127,-146.80127,-0.52268372,144.6632,-31.000484)"
       gradientUnits="userSpaceOnUse"
       spreadMethod="pad"><stop
         offset="0"
         style="stop-opacity:1;stop-color:#002a43"
         id="stop7-1" /><stop
         offset="1"
         style="stop-opacity:1;stop-color:#2c2d3d"
         id="stop8-8" /></radialGradient><linearGradient
       id="b"
       x1="70.739998"
       x2="304.39001"
       y1="207.69"
       y2="456.44"
       gradientTransform="matrix(0.01252805,4.4605909e-5,4.4605909e-5,-0.01252805,8.8805775,20.19845)"
       gradientUnits="userSpaceOnUse"
       spreadMethod="pad"><stop
         offset="0"
         style="stop-opacity:1;stop-color:#2d85c6"
         id="stop1" /><stop
         offset="1"
         style="stop-opacity:1;stop-color:#04bacc"
         id="stop2" /></linearGradient><linearGradient
       id="c"
       x1="146.39"
       x2="380.04001"
       y1="136.63"
       y2="385.38"
       gradientTransform="matrix(0.01252805,4.4605909e-5,-4.4605909e-5,0.01252805,8.6937546,13.562216)"
       gradientUnits="userSpaceOnUse"
       spreadMethod="pad"><stop
         offset="0"
         style="stop-opacity:1;stop-color:#2d85c6"
         id="stop3" /><stop
         offset="1"
         style="stop-opacity:1;stop-color:#04bacc"
         id="stop4" /></linearGradient><linearGradient
       id="d"
       x1="127.32"
       x2="360.97"
       y1="154.53999"
       y2="403.29001"
       gradientTransform="matrix(0.01252805,4.4605909e-5,-4.4605909e-5,0.01252805,8.6937546,13.562216)"
       gradientUnits="userSpaceOnUse"
       spreadMethod="pad"><stop
         offset="0"
         style="stop-opacity:1;stop-color:#2d85c6"
         id="stop5" /><stop
         offset="1"
         style="stop-opacity:1;stop-color:#04bacc"
         id="stop6" /></linearGradient><radialGradient
       id="paint0_radial_313_57"
       cx="0"
       cy="0"
       r="1"
       gradientUnits="userSpaceOnUse"
       gradientTransform="matrix(0,11,-11,0,12,1)"><stop
         stop-color="#1D4775"
         id="stop8" /><stop
         offset="1"
         stop-color="#002A43"
         id="stop9" /></radialGradient><linearGradient
       id="paint1_linear_313_57"
       x1="4"
       y1="16"
       x2="20"
       y2="16"
       gradientUnits="userSpaceOnUse"><stop
         stop-color="#2D85C5"
         id="stop10" /><stop
         offset="1"
         stop-color="#0BB1CB"
         id="stop11" /></linearGradient><radialGradient
       id="a-6-5"
       cx="0"
       cy="0"
       r="1"
       fx="0"
       fy="0"
       gradientTransform="matrix(-0.52268372,146.80127,-146.80127,-0.52268372,144.6632,-31.000484)"
       gradientUnits="userSpaceOnUse"
       spreadMethod="pad"><stop
         offset="0"
         style="stop-opacity:1;stop-color:#002a43"
         id="stop7-1-6" /><stop
         offset="1"
         style="stop-opacity:1;stop-color:#2c2d3d"
         id="stop8-8-2" /></radialGradient></defs><metadata
     id="metadata7"><rdf:RDF><cc:Work
         rdf:about=""><dc:format>image/svg+xml</dc:format><dc:type
           rdf:resource="http://purl.org/dc/dcmitype/StillImage" /></cc:Work></rdf:RDF></metadata><g
     id="g11"
     transform="matrix(4.9516484,0,0,4.9516484,-5.3083426,69.298245)"><path
       fill-rule="evenodd"
       clip-rule="evenodd"
       d="M 9.59604,1.11359 C 9.71588,1.11486 9.83043,1.0996 9.93969,1.06779 11.3755,0.973736 12.8111,0.977551 14.2467,1.07924 c 1.3017,0.10142 2.5618,0.38384 3.7802,0.84726 2.0256,0.83394 3.4117,2.28039 4.1581,4.33935 0.4269,1.23964 0.6789,2.51436 0.7561,3.82415 0.1067,1.6447 0.0685,3.2858 -0.1146,4.9233 -0.137,1.1509 -0.4349,2.2577 -0.8935,3.3203 -0.8506,1.8425 -2.229,3.1134 -4.1352,3.8127 -1.5447,0.5219 -3.1331,0.7967 -4.7653,0.8243 C 11.1966,23.0661 9.37913,22.9287 7.57997,22.5585 4.26839,21.8208 2.22559,19.8018 1.45158,16.5017 1.12311,15.0161 0.974199,13.5124 1.00483,11.9906 0.968176,10.3724 1.14,8.77709 1.52031,7.20471 2.33171,4.11908 4.2905,2.20701 7.39669,1.46852 8.12048,1.29157 8.8536,1.17326 9.59604,1.11359 Z"
       fill="url(#paint0_radial_313_57)"
       id="path1"
       style="fill:url(#paint0_radial_313_57)" /><path
       fill-rule="evenodd"
       clip-rule="evenodd"
       d="M 9.54799,22.8698 C 8.88956,22.7967 8.23356,22.693 7.57997,22.5585 6.15011,22.2399 4.95678,21.6826 4,20.8863 v -0.6159 c 0,-0.491 0.17695,-0.9109 0.53086,-1.2599 0.3539,-0.3489 0.77138,-0.5234 1.25242,-0.5234 h 2.26213 c 0.23348,0 0.42122,0.033 0.56322,0.0991 0.14189,0.066 0.25687,0.1651 0.34493,0.2972 0.35225,0.5063 0.79257,0.8971 1.32094,1.1723 0.5284,0.2752 1.0279,0.4129 1.7179,0.4128 0.6895,-10e-5 1.1772,-0.1376 1.7166,-0.4128 0.5394,-0.2752 0.9907,-0.666 1.354,-1.1723 0.077,-0.1321 0.1876,-0.2312 0.3317,-0.2972 0.1442,-0.0661 0.3253,-0.0991 0.5434,-0.0991 h 2.2786 c 0.491,0 0.9109,0.1745 1.2599,0.5234 C 19.8255,19.3595 20,19.7794 20,20.2704 v 0.627 c -0.6327,0.5261 -1.3668,0.9424 -2.2022,1.2489 -1.0933,0.3694 -2.2086,0.615 -3.3457,0.7368 -10e-5,-0.0028 -10e-5,-0.0056 -10e-5,-0.0085 v -0.7573 c 0,-0.1456 -0.1509,-0.2428 -0.2859,-0.1882 -0.2959,0.1197 -0.5996,0.219 -0.9112,0.2979 -0.4128,0.1046 -0.7647,0.156 -1.2608,0.1569 -0.4901,9e-4 -0.8315,-0.0495 -1.2462,-0.1486 -0.313,-0.0748 -0.6176,-0.1715 -0.91378,-0.2902 -0.1352,-0.0541 -0.28613,0.0431 -0.28613,0.1887 z m 2.44371,-8.4116 c -0.6128,0 -1.1375,-0.2188 -1.574,-0.6563 -0.43672,-0.4376 -0.65506,-0.9634 -0.65506,-1.5774 0,-0.6134 0.21878,-1.1375 0.65636,-1.5723 C 10.8566,10.2174 11.3823,10 11.9964,10 c 0.6133,0 1.1374,0.2185 1.5722,0.6555 0.4348,0.437 0.6522,0.9616 0.6522,1.5736 0,0.6128 -0.2185,1.1375 -0.6555,1.5741 -0.437,0.4367 -0.9615,0.655 -1.5736,0.655 z M 6.70795,16.902 c -0.61281,0 -1.13751,-0.2188 -1.57408,-0.6564 -0.43668,-0.4376 -0.65503,-0.9633 -0.65503,-1.5774 0,-0.6133 0.21879,-1.1374 0.65635,-1.5722 0.43757,-0.4348 0.96336,-0.6522 1.57738,-0.6522 0.61336,0 1.13745,0.2185 1.57226,0.6555 0.43481,0.437 0.65222,0.9615 0.65222,1.5736 0,0.6128 -0.21851,1.1375 -0.65552,1.574 -0.43702,0.4367 -0.96154,0.6551 -1.57358,0.6551 z m 10.56755,0 c -0.6128,0 -1.1375,-0.2188 -1.574,-0.6564 -0.4367,-0.4376 -0.6551,-0.9633 -0.6551,-1.5774 0,-0.6133 0.2188,-1.1374 0.6564,-1.5722 0.4376,-0.4348 0.9633,-0.6522 1.5774,-0.6522 0.6133,0 1.1374,0.2185 1.5722,0.6555 0.4348,0.437 0.6522,0.9615 0.6522,1.5736 0,0.6128 -0.2185,1.1375 -0.6555,1.574 -0.437,0.4367 -0.9615,0.6551 -1.5736,0.6551 z m -6.258,2.196 c 0.3083,0.1652 0.6323,0.2477 0.9723,0.2477 0.3518,0 0.685,-0.0825 0.9996,-0.2477 0.3146,-0.1651 0.571,-0.3852 0.7691,-0.6604 0.2642,-0.3963 0.5807,-0.6743 0.9494,-0.8339 0.2302,-0.0996 0.4786,-0.1681 0.7452,-0.2056 0.1792,-0.0251 0.2575,-0.2445 0.107,-0.3448 -0.3607,-0.2405 -0.8186,-0.4506 -1.3736,-0.6302 -0.7824,-0.2532 -1.514,-0.3798 -2.1948,-0.3798 -0.6697,0 -1.393,0.1266 -2.16995,0.3798 -0.54928,0.179 -1.00619,0.3883 -1.37071,0.6278 -0.15234,0.1001 -0.07444,0.3231 0.10586,0.3499 0.26282,0.039 0.50787,0.1094 0.73515,0.2112 0.36877,0.1651 0.69075,0.4403 0.96595,0.8256 0.1981,0.2752 0.4513,0.4953 0.7595,0.6604 z"
       fill="url(#paint1_linear_313_57)"
       id="path2"
       style="fill:url(#paint1_linear_313_57)" /><path
       d="m 11.0175,19.098 c 0.3082,0.1652 0.6323,0.2477 0.9722,0.2477 0.3519,0 0.6851,-0.0825 0.9997,-0.2477 0.3146,-0.1651 0.5709,-0.3852 0.7691,-0.6604 0.2642,-0.3963 0.5807,-0.6743 0.9494,-0.8339 0.2302,-0.0996 0.4786,-0.1681 0.7452,-0.2056 0.1792,-0.0251 0.2575,-0.2445 0.107,-0.3448 -0.3608,-0.2405 -0.8186,-0.4506 -1.3736,-0.6302 -0.7825,-0.2532 -1.514,-0.3798 -2.1948,-0.3798 -0.6697,0 -1.393,0.1266 -2.16997,0.3798 -0.54929,0.179 -1.00619,0.3883 -1.37072,0.6278 -0.15234,0.1001 -0.07444,0.3231 0.10587,0.3499 0.26282,0.039 0.50787,0.1094 0.73515,0.2112 0.36877,0.1651 0.69075,0.4403 0.96597,0.8256 0.1981,0.2752 0.4513,0.4953 0.7595,0.6604 z"
       fill="#2a91c9"
       id="path3" /><path
       d="m 10.4176,13.8019 c 0.4366,0.4375 0.9613,0.6563 1.5741,0.6563 0.6121,0 1.1366,-0.2183 1.5736,-0.655 0.437,-0.4366 0.6555,-0.9613 0.6555,-1.5741 0,-0.612 -0.2174,-1.1366 -0.6522,-1.5736 C 13.1338,10.2185 12.6097,10 11.9963,10 c -0.614,0 -1.1398,0.2174 -1.5773,0.6522 -0.4376,0.4348 -0.65638,0.9589 -0.65638,1.5723 0,0.614 0.21834,1.1398 0.65498,1.5774 z"
       fill="#2a91c9"
       id="path4" /><path
       d="m 14.4826,4.094 c 0.4146,-0.318 0.9181,-0.49898 1.4403,-0.51782 0.1676,0.02821 0.3392,0.03295 0.5083,0.05277 0.1908,0.0473 0.3716,0.12851 0.5337,0.23977 0.2514,0.21009 0.456,0.4706 0.6005,0.76468 0.2203,0.42094 0.3384,0.88783 0.3447,1.36288 C 17.9004,6.15664 17.8787,6.31605 17.8454,6.47321 17.7726,6.32688 17.7176,6.17237 17.6815,6.01297 17.603,5.81112 17.4933,5.62283 17.3565,5.45495 17.1581,5.19424 16.8694,5.01716 16.5471,4.9585 16.4243,4.93406 16.2985,4.92859 16.174,4.94226 15.8235,4.97455 15.4898,5.10758 15.2131,5.3253 15.1208,5.40284 15.0159,5.4731 14.9384,5.55486 14.8445,5.65605 14.756,5.76196 14.6729,5.87218 14.4286,6.19849 14.2573,6.57355 14.1707,6.97189 14.1607,7.13396 14.135,7.2865 14.123,7.44996 c 0.0272,0.1149 -0.0208,0.25679 0.0847,0.3366 0.0795,0.0189 0.1628,0.01178 0.2379,-0.02031 0.2019,-0.10417 0.3918,-0.23 0.5665,-0.37526 0.2104,-0.12319 0.373,-0.30095 0.5769,-0.43729 0.1119,-0.06047 0.1875,-0.14083 0.3025,-0.2094 0.2078,-0.14848 0.4312,-0.27389 0.6662,-0.37398 0.1799,-0.07299 0.3772,-0.09191 0.5677,-0.05445 0.1124,0.03449 0.2165,0.09137 0.3063,0.1672 0.0897,0.07583 0.1632,0.16905 0.2159,0.27403 0.1477,0.30928 0.2348,0.644 0.2565,0.98604 0.0103,0.17411 -0.033,0.3392 -0.0405,0.52754 -0.1152,0.57949 -0.315,1.13887 -0.5931,1.66015 -0.0988,0.18257 -0.2199,0.35217 -0.3607,0.50467 -0.0465,0.0405 -0.0801,0.0969 -0.138,0.1026 0.0317,-0.1107 0.0701,-0.2193 0.1151,-0.3253 0.0409,-0.1202 0.0671,-0.24485 0.078,-0.37131 C 17.0125,9.65099 17.0451,9.45707 17.0625,9.2615 17.0477,9.0625 17.0757,8.85519 17.0439,8.65505 17.0354,8.51048 17.006,8.36791 16.9565,8.23182 16.9362,8.14402 16.8964,8.06191 16.84,7.99159 16.773,7.91301 16.6842,7.85608 16.5848,7.82799 16.5064,7.83078 16.4284,7.84133 16.352,7.85948 16.1656,7.94532 15.9931,8.05866 15.8403,8.19571 15.7058,8.29555 15.5619,8.38217 15.4107,8.45437 15.1866,8.57041 14.9275,8.59928 14.6834,8.5354 14.3525,8.43949 14.0475,8.27034 13.7909,8.04049 13.669,7.93343 13.5604,7.81214 13.4673,7.67921 13.24,7.34401 13.1259,6.94488 13.1418,6.54021 c -0.0153,-0.125 -0.0022,-0.25182 0.0383,-0.37106 0.09,-0.48301 0.2882,-0.93938 0.5797,-1.33489 0.1437,-0.1833 0.3038,-0.35311 0.4784,-0.5073 0.0565,-0.10017 0.1416,-0.18127 0.2444,-0.23296 z"
       fill="#ffffff"
       id="path5" /><path
       d="M 9.48208,10.0028 C 9.0683,10.3217 8.56522,10.5034 8.04312,10.5226 7.87548,10.4943 7.7039,10.4896 7.53513,10.4681 7.34397,10.4224 7.16293,10.3416 7.00115,10.23 6.75081,10.0174 6.54834,9.75426 6.40707,9.4578 6.18844,9.03681 6.07035,8.57089 6.06206,8.0966 6.07182,7.93624 6.09346,7.77683 6.12679,7.61967 6.20058,7.76558 6.25564,7.92021 6.29069,8.07991 6.36871,8.28155 6.47781,8.46974 6.61402,8.63764 6.80953,8.89982 7.09589,9.07956 7.417,9.14163 7.53988,9.16637 7.66592,9.17129 7.79035,9.15619 8.14084,9.12529 8.47469,8.99275 8.75092,8.77484 8.84354,8.69562 8.94676,8.63541 9.02571,8.54527 9.11984,8.44436 9.20845,8.33843 9.29114,8.22795 9.5405,7.90037 9.7143,7.52168 9.80008,7.11903 9.8132,6.94886 9.83774,6.80303 9.84945,6.64124 9.82056,6.52606 9.86857,6.38417 9.76305,6.30436 9.68358,6.28629 9.60045,6.29338 9.52519,6.32467 9.32283,6.42885 9.13272,6.55528 8.9584,6.70161 8.75001,6.82341 8.58569,7.00088 8.38174,7.13722 8.26986,7.19769 8.19287,7.28643 8.07931,7.34662 7.87118,7.49466 7.64782,7.62003 7.41304,7.7206 7.23311,7.79349 7.03586,7.81241 6.84535,7.77505 6.7333,7.74214 6.6291,7.6868 6.53909,7.61239 6.44908,7.53798 6.37513,7.44606 6.32173,7.3422 6.17404,7.03292 6.087,6.6982 6.0653,6.35616 6.05495,6.18205 6.09824,6.01696 6.1058,5.82862 6.22184,5.24766 6.42192,4.68671 6.69972,4.16344 6.79847,3.98084 6.91966,3.8113 7.06046,3.65875 7.10691,3.6183 7.13718,3.56134 7.19672,3.55584 7.16487,3.6665 7.12644,3.77515 7.08163,3.88123 7.03927,4.00155 7.01241,4.12678 7.00169,4.25389 6.95413,4.44439 6.9215,4.63831 6.9041,4.83389 6.91721,5.0326 6.8909,5.24019 6.91909,5.44144 6.92814,5.58517 6.95707,5.72694 7.00508,5.86272 7.02662,5.95048 7.06692,6.03253 7.12321,6.10323 7.19033,6.18122 7.27949,6.23709 7.37895,6.26348 7.45749,6.26155 7.53558,6.25099 7.6118,6.23198 7.79823,6.14615 7.97071,6.03281 8.12347,5.89576 8.25769,5.79684 8.40089,5.71071 8.55118,5.63849 8.77561,5.52149 9.03554,5.49211 9.28044,5.55607 c 0.33112,0.09525 0.63628,0.26448 0.89246,0.49491 0.1219,0.10646 0.2307,0.2272 0.3239,0.3596 0.2295,0.3363 0.3462,0.73683 0.3333,1.14377 0.0144,0.125 0.0013,0.25163 -0.0383,0.37106 -0.0939,0.48519 -0.297,0.94263 -0.594,1.33765 C 10.0593,9.44802 9.90402,9.61981 9.73395,9.77626 9.67097,9.87225 9.58419,9.95029 9.48208,10.0028 Z"
       fill="#ffffff"
       id="path6" /><path
       d="m 11.5605,4.04361 c 0.1791,-0.03354 0.3633,-0.02856 0.5403,0.0146 0.177,0.04316 0.3428,0.12351 0.4864,0.23571 0.1004,0.10285 0.174,0.22891 0.214,0.36698 0.0202,0.0863 0.0202,0.17609 0,0.26238 C 12.781,5.00957 12.7411,5.09004 12.6848,5.15843 12.5642,5.31512 12.4051,5.4379 12.223,5.5148 12.0409,5.5917 11.8419,5.6201 11.6456,5.59722 11.4623,5.58891 11.2841,5.53462 11.1274,5.43936 11.0295,5.38178 10.9453,5.30341 10.881,5.20978 10.8166,5.11615 10.7736,5.00955 10.7549,4.89748 10.7466,4.81383 10.7564,4.72938 10.7834,4.64981 10.8105,4.57023 10.8543,4.49735 10.9118,4.43607 11.0727,4.23029 11.3035,4.09065 11.5605,4.04361 Z"
       fill="#ffffff"
       id="path7" /><path
       d="M 11.2432,6.07248 C 11.3339,5.96826 11.4502,5.8894 11.5806,5.84365 11.711,5.7979 11.851,5.78683 11.987,5.81152 c 0.139,0.03212 0.2703,0.09171 0.386,0.17526 0.0855,0.05074 0.1577,0.12108 0.2107,0.20522 0.053,0.08414 0.0852,0.17967 0.094,0.27871 -0.0382,0.22523 -0.053,0.45381 -0.0441,0.68208 0.0709,0.47254 0.2706,0.91644 0.5771,1.28303 0.134,0.22769 0.3409,0.40211 0.4749,0.62979 C 13.4282,9.01455 13.175,8.94428 12.928,8.8554 12.6244,8.75274 12.3418,8.59599 12.094,8.39272 11.9493,8.28671 11.8196,8.16167 11.7083,8.021 11.5235,7.81596 11.3748,7.58112 11.2684,7.32643 11.1377,7.03315 11.081,6.71227 11.1033,6.39196 11.1312,6.27822 11.1786,6.17015 11.2432,6.07248 Z"
       fill="#ffffff"
       id="path8" /></g><rect
     style="fill:none;stroke-width:0.752768"
     id="rect289"
     width="340"
     height="200.00002"
     x="2.1664619e-07"
     y="2.2922136e-07"
     rx="1.1333333" /><text
     xml:space="preserve"
     style="font-weight:bold;font-size:30.6324px;font-family:'Ubuntu Mono';-inkscape-font-specification:'Ubuntu Mono Bold';fill:#4f4f4f;fill-opacity:1;stroke:none;stroke-width:6.87417;stroke-linecap:round;stroke-linejoin:round"
     x="110.65779"
     y="138.86038"
     id="text638"><tspan
       sodipodi:role="line"
       id="tspan636"
       style="font-style:normal;font-variant:normal;font-weight:600;font-stretch:normal;font-family:'Lexend Deca';-inkscape-font-specification:'Lexend Deca Semi-Bold';fill:#4f4f4f;fill-opacity:1;stroke:none;stroke-width:6.87417"
       x="110.65779"
       y="138.86038">BigCommunity</tspan></text></svg>
